# Blender v2.92.0 OBJ File: 'axe.blend'
# www.blender.org

o Cube_Cube.001
v 0.072138 -0.320776 0.122373
v 0.072138 0.320776 0.122373
v 0.072138 -0.320776 -0.122373
v 0.072138 0.320776 -0.122373
v -0.072138 -0.320776 0.122373
v -0.072138 0.320776 0.122373
v -0.072138 -0.320776 -0.122373
v -0.072138 0.320776 -0.122373
v 0.061832 -0.320776 -0.189512
v 0.061832 0.320776 -0.189512
v -0.061832 -0.320776 -0.189512
v -0.061832 0.320776 -0.189512
v 0.049662 -0.320776 -0.245688
v 0.049662 0.320776 -0.245688
v -0.049662 -0.320776 -0.245688
v -0.049662 0.320776 -0.245688
v 0.033842 -0.320776 -0.299817
v 0.033842 0.320776 -0.299817
v -0.033842 -0.320776 -0.299817
v -0.033842 0.320776 -0.299817
v 0.015307 -0.320776 -0.350696
v 0.015307 0.320776 -0.350696
v -0.015307 -0.320776 -0.350696
v -0.015307 0.320776 -0.350696
v 0.000000 -0.320776 -0.377251
v 0.000000 0.320776 -0.377251
vt 0.209751 0.549591
vt 0.000142 0.000142
vt 0.000141 0.549591
vt 0.608228 0.000141
vt 0.666402 0.549591
vt 0.666402 0.000141
vt 0.876012 0.549591
vt 0.999859 0.549591
vt 0.876295 0.000141
vt 0.876295 0.549591
vt 0.438590 0.564846
vt 0.310789 0.771900
vt 0.434328 0.774413
vt 0.651849 0.563546
vt 0.528285 0.773156
vt 0.651849 0.773156
vt 0.559001 0.000141
vt 0.608228 0.549591
vt 0.318445 0.829568
vt 0.537112 0.830656
vt 0.267925 0.549591
vt 0.209752 0.000142
vt 0.547534 0.878767
vt 0.619051 0.925126
vt 0.632600 0.878767
vt 0.327887 0.877881
vt 0.424334 0.831722
vt 0.643022 0.830656
vt 0.317152 0.549591
vt 0.267925 0.000142
vt 0.576958 0.968700
vt 0.561083 0.925126
vt 0.365451 0.549591
vt 0.317152 0.000142
vt 0.510703 0.000141
vt 0.559001 0.549591
vt 0.398446 0.925684
vt 0.412935 0.879611
vt 0.438076 0.000142
vt 0.464327 0.549591
vt 0.464326 0.000142
vt 0.411827 0.549591
vt 0.365450 0.000142
vt 0.510703 0.549591
vt 0.355475 0.968394
vt 0.340490 0.924506
vt 0.368120 0.991398
vt 0.381689 0.968928
vt 0.590067 0.991443
vt 0.603177 0.968700
vt 0.438077 0.549591
vt 0.411826 0.000142
vt 0.876012 0.000141
vt 0.999859 0.000141
vt 0.315052 0.562334
vt 0.528285 0.563546
vn 1.0000 0.0000 0.0000
vn -0.9884 0.0000 -0.1517
vn -1.0000 0.0000 0.0000
vn 0.0000 0.0000 1.0000
vn 0.0000 -1.0000 0.0000
vn 0.0000 1.0000 0.0000
vn -0.9773 0.0000 -0.2117
vn 0.9884 0.0000 -0.1517
vn 0.9773 0.0000 -0.2117
vn 0.9598 0.0000 -0.2805
vn -0.9598 0.0000 -0.2805
vn -0.8664 0.0000 -0.4994
vn 0.9396 0.0000 -0.3423
vn -0.9396 0.0000 -0.3423
vn 0.8664 0.0000 -0.4994
usemtl None
s off
f 3/1/1 2/2/1 1/3/1
f 12/4/2 7/5/2 8/6/2
f 5/7/3 8/6/3 7/5/3
f 1/8/4 6/9/4 5/10/4
f 1/11/5 7/12/5 3/13/5
f 6/14/6 4/15/6 8/16/6
f 16/17/7 11/18/7 12/4/7
f 11/19/5 3/13/5 7/12/5
f 10/20/6 8/16/6 4/15/6
f 9/21/8 4/22/8 3/1/8
f 14/23/6 20/24/6 16/25/6
f 15/26/5 9/27/5 11/19/5
f 14/23/6 12/28/6 10/20/6
f 13/29/9 10/30/9 9/21/9
f 22/31/6 20/24/6 18/32/6
f 17/33/10 14/34/10 13/29/10
f 20/35/11 15/36/11 16/17/11
f 15/26/5 17/37/5 13/38/5
f 26/39/12 23/40/12 24/41/12
f 21/42/13 18/43/13 17/33/13
f 24/41/14 19/44/14 20/35/14
f 23/45/5 17/37/5 19/46/5
f 23/45/5 25/47/5 21/48/5
f 22/31/6 26/49/6 24/50/6
f 25/51/15 22/52/15 21/42/15
f 3/1/1 4/22/1 2/2/1
f 12/4/2 11/18/2 7/5/2
f 5/7/3 6/53/3 8/6/3
f 1/8/4 2/54/4 6/9/4
f 1/11/5 5/55/5 7/12/5
f 6/14/6 2/56/6 4/15/6
f 16/17/7 15/36/7 11/18/7
f 11/19/5 9/27/5 3/13/5
f 10/20/6 12/28/6 8/16/6
f 9/21/8 10/30/8 4/22/8
f 14/23/6 18/32/6 20/24/6
f 15/26/5 13/38/5 9/27/5
f 14/23/6 16/25/6 12/28/6
f 13/29/9 14/34/9 10/30/9
f 22/31/6 24/50/6 20/24/6
f 17/33/10 18/43/10 14/34/10
f 20/35/11 19/44/11 15/36/11
f 15/26/5 19/46/5 17/37/5
f 26/39/12 25/51/12 23/40/12
f 21/42/13 22/52/13 18/43/13
f 24/41/14 23/40/14 19/44/14
f 23/45/5 21/48/5 17/37/5
f 25/51/15 26/39/15 22/52/15
